<mxfile host="app.diagrams.net" modified="2023-03-06T15:53:41.822Z" agent="5.0 (Windows NT 10.0; Win64; x64) AppleWebKit/537.36 (KHTML, like Gecko) Chrome/110.0.0.0 Safari/537.36" etag="mDYYBOFUQ0UFteLGpt0K" version="21.0.2" type="github">
  <diagram id="prtHgNgQTEPvFCAcTncT" name="Page-1">
    <mxGraphModel dx="1195" dy="657" grid="1" gridSize="10" guides="1" tooltips="1" connect="1" arrows="1" fold="1" page="1" pageScale="1" pageWidth="827" pageHeight="1169" math="0" shadow="0">
      <root>
        <mxCell id="0" />
        <mxCell id="1" parent="0" />
        <mxCell id="dNxyNK7c78bLwvsdeMH5-19" value="Pool" style="swimlane;html=1;childLayout=stackLayout;resizeParent=1;resizeParentMax=0;horizontal=0;startSize=20;horizontalStack=0;" parent="1" vertex="1">
          <mxGeometry x="50" width="728" height="950" as="geometry" />
        </mxCell>
        <mxCell id="dNxyNK7c78bLwvsdeMH5-20" value="Guest" style="swimlane;html=1;startSize=20;horizontal=0;" parent="dNxyNK7c78bLwvsdeMH5-19" vertex="1">
          <mxGeometry x="20" width="708" height="120" as="geometry" />
        </mxCell>
        <mxCell id="dNxyNK7c78bLwvsdeMH5-24" value="Login" style="rounded=0;whiteSpace=wrap;html=1;fontFamily=Helvetica;fontSize=12;fontColor=#000000;align=center;" parent="dNxyNK7c78bLwvsdeMH5-20" vertex="1">
          <mxGeometry x="170" y="30" width="80" height="60" as="geometry" />
        </mxCell>
        <mxCell id="dNxyNK7c78bLwvsdeMH5-30" value="Home" style="rounded=0;whiteSpace=wrap;html=1;fontFamily=Helvetica;fontSize=12;fontColor=#000000;align=center;" parent="dNxyNK7c78bLwvsdeMH5-20" vertex="1">
          <mxGeometry x="309" y="30" width="78" height="60" as="geometry" />
        </mxCell>
        <mxCell id="hTmnyue4z5k54O5HASOT-2" value="" style="endArrow=classic;startArrow=none;html=1;rounded=0;entryX=1;entryY=0.5;entryDx=0;entryDy=0;exitX=0;exitY=0.5;exitDx=0;exitDy=0;" edge="1" parent="dNxyNK7c78bLwvsdeMH5-20" source="hTmnyue4z5k54O5HASOT-3">
          <mxGeometry width="50" height="50" relative="1" as="geometry">
            <mxPoint x="297" y="320" as="sourcePoint" />
            <mxPoint x="67" y="60" as="targetPoint" />
          </mxGeometry>
        </mxCell>
        <mxCell id="hTmnyue4z5k54O5HASOT-3" value="Register" style="rounded=0;whiteSpace=wrap;html=1;fontFamily=Helvetica;fontSize=12;fontColor=#000000;align=center;" vertex="1" parent="dNxyNK7c78bLwvsdeMH5-20">
          <mxGeometry x="47" y="30" width="80" height="60" as="geometry" />
        </mxCell>
        <mxCell id="hTmnyue4z5k54O5HASOT-5" value="" style="endArrow=classic;startArrow=classic;html=1;rounded=0;entryX=0;entryY=0.5;entryDx=0;entryDy=0;" edge="1" parent="dNxyNK7c78bLwvsdeMH5-20" source="hTmnyue4z5k54O5HASOT-3" target="dNxyNK7c78bLwvsdeMH5-24">
          <mxGeometry width="50" height="50" relative="1" as="geometry">
            <mxPoint x="139" y="99" as="sourcePoint" />
            <mxPoint x="189" y="49" as="targetPoint" />
          </mxGeometry>
        </mxCell>
        <mxCell id="hTmnyue4z5k54O5HASOT-6" value="" style="endArrow=classic;startArrow=classic;html=1;rounded=0;exitX=1;exitY=0.5;exitDx=0;exitDy=0;entryX=0;entryY=0.5;entryDx=0;entryDy=0;" edge="1" parent="dNxyNK7c78bLwvsdeMH5-20" source="dNxyNK7c78bLwvsdeMH5-24" target="dNxyNK7c78bLwvsdeMH5-30">
          <mxGeometry width="50" height="50" relative="1" as="geometry">
            <mxPoint x="259" y="119" as="sourcePoint" />
            <mxPoint x="299" y="79" as="targetPoint" />
          </mxGeometry>
        </mxCell>
        <mxCell id="hTmnyue4z5k54O5HASOT-9" value="Course" style="rounded=0;whiteSpace=wrap;html=1;fontFamily=Helvetica;fontSize=12;fontColor=#000000;align=center;" vertex="1" parent="dNxyNK7c78bLwvsdeMH5-20">
          <mxGeometry x="447" y="30" width="80" height="60" as="geometry" />
        </mxCell>
        <mxCell id="hTmnyue4z5k54O5HASOT-13" value="" style="endArrow=classic;startArrow=classic;html=1;rounded=0;entryX=0;entryY=0.5;entryDx=0;entryDy=0;exitX=1;exitY=0.5;exitDx=0;exitDy=0;" edge="1" parent="dNxyNK7c78bLwvsdeMH5-20" source="dNxyNK7c78bLwvsdeMH5-30" target="hTmnyue4z5k54O5HASOT-9">
          <mxGeometry width="50" height="50" relative="1" as="geometry">
            <mxPoint x="377" y="129" as="sourcePoint" />
            <mxPoint x="427" y="79" as="targetPoint" />
          </mxGeometry>
        </mxCell>
        <mxCell id="dNxyNK7c78bLwvsdeMH5-21" value="Student" style="swimlane;html=1;startSize=20;horizontal=0;" parent="dNxyNK7c78bLwvsdeMH5-19" vertex="1">
          <mxGeometry x="20" y="120" width="708" height="450" as="geometry">
            <mxRectangle x="20" y="120" width="708" height="30" as="alternateBounds" />
          </mxGeometry>
        </mxCell>
        <mxCell id="hTmnyue4z5k54O5HASOT-50" value="" style="edgeStyle=orthogonalEdgeStyle;rounded=0;orthogonalLoop=1;jettySize=auto;html=1;entryX=0;entryY=0.5;entryDx=0;entryDy=0;" edge="1" parent="dNxyNK7c78bLwvsdeMH5-21" source="hTmnyue4z5k54O5HASOT-45" target="hTmnyue4z5k54O5HASOT-51">
          <mxGeometry relative="1" as="geometry">
            <mxPoint x="570" y="257.5000000000001" as="targetPoint" />
          </mxGeometry>
        </mxCell>
        <mxCell id="hTmnyue4z5k54O5HASOT-45" value="View Lesson" style="rounded=0;whiteSpace=wrap;html=1;fontFamily=Helvetica;fontSize=12;fontColor=#000000;align=center;" vertex="1" parent="dNxyNK7c78bLwvsdeMH5-21">
          <mxGeometry x="371" y="252" width="120" height="35" as="geometry" />
        </mxCell>
        <mxCell id="hTmnyue4z5k54O5HASOT-46" value="Comment" style="rounded=0;whiteSpace=wrap;html=1;fontFamily=Helvetica;fontSize=12;fontColor=#000000;align=center;" vertex="1" parent="dNxyNK7c78bLwvsdeMH5-21">
          <mxGeometry x="371" y="210" width="120" height="35" as="geometry" />
        </mxCell>
        <mxCell id="hTmnyue4z5k54O5HASOT-51" value="Take Quiz" style="rounded=0;whiteSpace=wrap;html=1;fontFamily=Helvetica;fontSize=12;fontColor=#000000;align=center;" vertex="1" parent="dNxyNK7c78bLwvsdeMH5-21">
          <mxGeometry x="530" y="252" width="120" height="35" as="geometry" />
        </mxCell>
        <mxCell id="hTmnyue4z5k54O5HASOT-52" value="Blog" style="rounded=0;whiteSpace=wrap;html=1;fontFamily=Helvetica;fontSize=12;fontColor=#000000;align=center;" vertex="1" parent="dNxyNK7c78bLwvsdeMH5-21">
          <mxGeometry x="231" y="71" width="102" height="35" as="geometry" />
        </mxCell>
        <mxCell id="hTmnyue4z5k54O5HASOT-38" value="Edit Profile" style="rounded=0;whiteSpace=wrap;html=1;fontFamily=Helvetica;fontSize=12;fontColor=#000000;align=center;" vertex="1" parent="dNxyNK7c78bLwvsdeMH5-21">
          <mxGeometry x="371" y="404" width="120" height="35" as="geometry" />
        </mxCell>
        <mxCell id="hTmnyue4z5k54O5HASOT-53" value="Vote" style="rounded=0;whiteSpace=wrap;html=1;fontFamily=Helvetica;fontSize=12;fontColor=#000000;align=center;" vertex="1" parent="dNxyNK7c78bLwvsdeMH5-21">
          <mxGeometry x="371" y="167" width="120" height="35" as="geometry" />
        </mxCell>
        <mxCell id="hTmnyue4z5k54O5HASOT-56" value="Comment" style="rounded=0;whiteSpace=wrap;html=1;fontFamily=Helvetica;fontSize=12;fontColor=#000000;align=center;" vertex="1" parent="dNxyNK7c78bLwvsdeMH5-21">
          <mxGeometry x="371" y="71" width="120" height="35" as="geometry" />
        </mxCell>
        <mxCell id="hTmnyue4z5k54O5HASOT-57" value="" style="endArrow=classic;html=1;rounded=0;exitX=1;exitY=0.5;exitDx=0;exitDy=0;entryX=0;entryY=0.5;entryDx=0;entryDy=0;" edge="1" parent="dNxyNK7c78bLwvsdeMH5-21" source="hTmnyue4z5k54O5HASOT-52" target="hTmnyue4z5k54O5HASOT-56">
          <mxGeometry width="50" height="50" relative="1" as="geometry">
            <mxPoint x="360" y="155" as="sourcePoint" />
            <mxPoint x="410" y="105" as="targetPoint" />
          </mxGeometry>
        </mxCell>
        <mxCell id="dNxyNK7c78bLwvsdeMH5-22" value="Admin" style="swimlane;html=1;startSize=20;horizontal=0;" parent="dNxyNK7c78bLwvsdeMH5-19" vertex="1">
          <mxGeometry x="20" y="570" width="708" height="380" as="geometry">
            <mxRectangle x="20" y="150" width="700" height="30" as="alternateBounds" />
          </mxGeometry>
        </mxCell>
        <mxCell id="hTmnyue4z5k54O5HASOT-62" value="" style="endArrow=classic;html=1;rounded=0;exitX=0.5;exitY=1;exitDx=0;exitDy=0;entryX=0;entryY=0.5;entryDx=0;entryDy=0;" edge="1" parent="dNxyNK7c78bLwvsdeMH5-19" target="hTmnyue4z5k54O5HASOT-52">
          <mxGeometry width="50" height="50" relative="1" as="geometry">
            <mxPoint x="230" y="90" as="sourcePoint" />
            <mxPoint x="250" y="207.5000000000001" as="targetPoint" />
            <Array as="points">
              <mxPoint x="230" y="208" />
            </Array>
          </mxGeometry>
        </mxCell>
        <mxCell id="hTmnyue4z5k54O5HASOT-34" value="Change password" style="rounded=0;whiteSpace=wrap;html=1;fontFamily=Helvetica;fontSize=12;fontColor=#000000;align=center;" vertex="1" parent="1">
          <mxGeometry x="440" y="423" width="120" height="33" as="geometry" />
        </mxCell>
        <mxCell id="hTmnyue4z5k54O5HASOT-35" value="Profile" style="rounded=0;whiteSpace=wrap;html=1;fontFamily=Helvetica;fontSize=12;fontColor=#000000;align=center;" vertex="1" parent="1">
          <mxGeometry x="299" y="474" width="102" height="35" as="geometry" />
        </mxCell>
        <mxCell id="hTmnyue4z5k54O5HASOT-36" value="View Course" style="rounded=0;whiteSpace=wrap;html=1;fontFamily=Helvetica;fontSize=12;fontColor=#000000;align=center;" vertex="1" parent="1">
          <mxGeometry x="300" y="330" width="102" height="35" as="geometry" />
        </mxCell>
        <mxCell id="hTmnyue4z5k54O5HASOT-37" value="Change password" style="rounded=0;whiteSpace=wrap;html=1;fontFamily=Helvetica;fontSize=12;fontColor=#000000;align=center;" vertex="1" parent="1">
          <mxGeometry x="440" y="474" width="120" height="35" as="geometry" />
        </mxCell>
        <mxCell id="hTmnyue4z5k54O5HASOT-39" value="" style="endArrow=classic;html=1;rounded=0;exitX=1;exitY=0.5;exitDx=0;exitDy=0;entryX=0;entryY=0.5;entryDx=0;entryDy=0;" edge="1" parent="1" source="hTmnyue4z5k54O5HASOT-35" target="hTmnyue4z5k54O5HASOT-37">
          <mxGeometry width="50" height="50" relative="1" as="geometry">
            <mxPoint x="402" y="558" as="sourcePoint" />
            <mxPoint x="452" y="508" as="targetPoint" />
          </mxGeometry>
        </mxCell>
        <mxCell id="hTmnyue4z5k54O5HASOT-40" value="" style="endArrow=classic;html=1;rounded=0;exitX=1;exitY=0.5;exitDx=0;exitDy=0;entryX=0;entryY=0.5;entryDx=0;entryDy=0;" edge="1" parent="1" target="hTmnyue4z5k54O5HASOT-38">
          <mxGeometry width="50" height="50" relative="1" as="geometry">
            <mxPoint x="400" y="491.5" as="sourcePoint" />
            <mxPoint x="480" y="540.5" as="targetPoint" />
            <Array as="points">
              <mxPoint x="420" y="491" />
              <mxPoint x="420" y="541" />
            </Array>
          </mxGeometry>
        </mxCell>
        <mxCell id="hTmnyue4z5k54O5HASOT-41" value="" style="endArrow=classic;html=1;rounded=0;exitX=1;exitY=0.5;exitDx=0;exitDy=0;entryX=0;entryY=0.5;entryDx=0;entryDy=0;" edge="1" parent="1">
          <mxGeometry width="50" height="50" relative="1" as="geometry">
            <mxPoint x="400" y="491.5" as="sourcePoint" />
            <mxPoint x="440" y="440.9999999999999" as="targetPoint" />
            <Array as="points">
              <mxPoint x="420" y="492" />
              <mxPoint x="420" y="441" />
            </Array>
          </mxGeometry>
        </mxCell>
        <mxCell id="hTmnyue4z5k54O5HASOT-47" value="" style="endArrow=classic;html=1;rounded=0;exitX=1;exitY=0.5;exitDx=0;exitDy=0;entryX=0;entryY=0.5;entryDx=0;entryDy=0;" edge="1" parent="1" source="hTmnyue4z5k54O5HASOT-36" target="hTmnyue4z5k54O5HASOT-45">
          <mxGeometry width="50" height="50" relative="1" as="geometry">
            <mxPoint x="414" y="366" as="sourcePoint" />
            <mxPoint x="464" y="316" as="targetPoint" />
            <Array as="points">
              <mxPoint x="420" y="348" />
              <mxPoint x="420" y="390" />
            </Array>
          </mxGeometry>
        </mxCell>
        <mxCell id="hTmnyue4z5k54O5HASOT-54" value="" style="endArrow=classic;html=1;rounded=0;exitX=1;exitY=0.5;exitDx=0;exitDy=0;entryX=0;entryY=0.5;entryDx=0;entryDy=0;" edge="1" parent="1" source="hTmnyue4z5k54O5HASOT-36" target="hTmnyue4z5k54O5HASOT-46">
          <mxGeometry width="50" height="50" relative="1" as="geometry">
            <mxPoint x="420" y="330" as="sourcePoint" />
            <mxPoint x="470" y="280" as="targetPoint" />
          </mxGeometry>
        </mxCell>
        <mxCell id="hTmnyue4z5k54O5HASOT-55" value="" style="endArrow=classic;html=1;rounded=0;exitX=1;exitY=0.5;exitDx=0;exitDy=0;entryX=0;entryY=0.5;entryDx=0;entryDy=0;" edge="1" parent="1" source="hTmnyue4z5k54O5HASOT-36" target="hTmnyue4z5k54O5HASOT-53">
          <mxGeometry width="50" height="50" relative="1" as="geometry">
            <mxPoint x="420" y="335" as="sourcePoint" />
            <mxPoint x="470" y="285" as="targetPoint" />
            <Array as="points">
              <mxPoint x="420" y="347" />
              <mxPoint x="420" y="305" />
            </Array>
          </mxGeometry>
        </mxCell>
        <mxCell id="hTmnyue4z5k54O5HASOT-59" value="" style="endArrow=classic;html=1;rounded=0;exitX=0.5;exitY=1;exitDx=0;exitDy=0;entryX=0;entryY=0.5;entryDx=0;entryDy=0;" edge="1" parent="1" source="dNxyNK7c78bLwvsdeMH5-24" target="hTmnyue4z5k54O5HASOT-35">
          <mxGeometry width="50" height="50" relative="1" as="geometry">
            <mxPoint x="250" y="410" as="sourcePoint" />
            <mxPoint x="280" y="500" as="targetPoint" />
            <Array as="points">
              <mxPoint x="280" y="492" />
            </Array>
          </mxGeometry>
        </mxCell>
        <mxCell id="hTmnyue4z5k54O5HASOT-60" value="" style="endArrow=classic;html=1;rounded=0;exitX=0.5;exitY=1;exitDx=0;exitDy=0;entryX=0;entryY=0.5;entryDx=0;entryDy=0;" edge="1" parent="1">
          <mxGeometry width="50" height="50" relative="1" as="geometry">
            <mxPoint x="280" y="91" as="sourcePoint" />
            <mxPoint x="300" y="348.4999999999999" as="targetPoint" />
            <Array as="points">
              <mxPoint x="280" y="348" />
            </Array>
          </mxGeometry>
        </mxCell>
      </root>
    </mxGraphModel>
  </diagram>
</mxfile>
